<?xml version="1.0" encoding="utf-8"?>
<!-- Generator: Adobe Illustrator 28.0.0, SVG Export Plug-In . SVG Version: 6.00 Build 0)  -->
<svg version="1.1" id="Layer_1" xmlns="http://www.w3.org/2000/svg" xmlns:xlink="http://www.w3.org/1999/xlink" x="0px" y="0px"
	 viewBox="0 0 125 20" style="enable-background:new 0 0 125 20;" xml:space="preserve">
<g>
	<path d="M3.76,6.44c0-0.34-0.04-0.54-0.12-0.69C3.45,5.4,2.85,5.28,2.52,5.28c-0.21,0-0.33-0.06-0.33-0.15C2.19,5.06,2.31,5,2.49,5
		C3.1,5,3.78,5.03,4.93,5.03S6.76,5,7.38,5c0.2,0,0.32,0.06,0.32,0.13c0,0.09-0.13,0.15-0.33,0.15c-0.33,0-0.95,0.12-1.14,0.46
		C6.15,5.9,6.1,6.09,6.1,6.44v1.88c0,0.13,0.03,0.21,0.17,0.21h6.28c0.11,0,0.15-0.04,0.15-0.13V6.44c0-0.34-0.04-0.54-0.12-0.69
		c-0.19-0.35-0.79-0.46-1.12-0.46c-0.21,0-0.33-0.06-0.33-0.15c0-0.08,0.12-0.13,0.32-0.13c0.62,0,1.27,0.03,2.43,0.03
		C15.04,5.03,15.7,5,16.32,5c0.19,0,0.31,0.06,0.31,0.13c0,0.09-0.12,0.15-0.33,0.15c-0.33,0-0.93,0.12-1.12,0.46
		c-0.07,0.15-0.12,0.34-0.12,0.69v5.47c0,0.36,0.03,0.55,0.12,0.71c0.2,0.34,0.79,0.46,1.12,0.46c0.21,0,0.33,0.06,0.33,0.15
		c0,0.08-0.12,0.13-0.31,0.13c-0.62,0-1.28-0.03-2.43-0.03c-1.17,0-1.83,0.03-2.44,0.03c-0.2,0-0.32-0.06-0.32-0.13
		c0-0.09,0.12-0.15,0.33-0.15c0.33,0,0.93-0.12,1.12-0.46c0.09-0.15,0.12-0.34,0.12-0.71V9.59c0-0.13-0.04-0.21-0.15-0.21H6.33
		c-0.18,0-0.22,0.04-0.22,0.21v2.33c0,0.36,0.04,0.55,0.12,0.71c0.19,0.34,0.81,0.46,1.14,0.46c0.2,0,0.33,0.06,0.33,0.15
		c0,0.08-0.12,0.13-0.32,0.13c-0.61,0-1.29-0.03-2.44-0.03s-1.82,0.03-2.45,0.03c-0.18,0-0.3-0.06-0.3-0.13
		c0-0.09,0.12-0.15,0.33-0.15c0.33,0,0.93-0.12,1.12-0.46c0.08-0.15,0.12-0.34,0.12-0.71V6.44z"/>
	<path d="M23.1,13.37c-0.63,0-1.37-0.03-2.33-0.03c-1.14,0-1.81,0.03-2.42,0.03c-0.21,0-0.31-0.06-0.31-0.13
		c0-0.09,0.1-0.15,0.31-0.15c0.33,0,0.95-0.12,1.14-0.46c0.08-0.15,0.12-0.34,0.12-0.69V6.45c0-0.36-0.04-0.56-0.12-0.71
		c-0.19-0.35-0.81-0.46-1.14-0.46c-0.21,0-0.31-0.06-0.31-0.15c0-0.08,0.1-0.13,0.31-0.13c0.6,0,1.28,0.03,2.43,0.03
		c0.56,0,1.38-0.03,2.04-0.03H27c0.88,0,0.88-0.15,1.07-0.15c0.17,0,0.19,0.06,0.15,0.36l-0.24,1.86c-0.03,0.27-0.26,0.29-0.29,0
		c-0.23-1.27-0.79-1.27-2.13-1.27h-2.58c-0.78,0-1.02,0.18-1.02,0.9v1.7c0,0.17,0.05,0.21,0.23,0.21h2.49c0.86,0,1.29-0.53,1.31-1
		c0-0.2,0.08-0.29,0.15-0.29c0.08,0,0.14,0.09,0.14,0.29c0,0.36-0.03,0.97-0.03,1.39s0.03,1.02,0.03,1.39
		c0,0.21-0.06,0.29-0.14,0.29c-0.07,0-0.15-0.06-0.15-0.29c0-0.48-0.45-0.99-1.31-0.99h-2.49c-0.2,0-0.23,0.06-0.23,0.21v1.46
		c0,1.23,0.33,1.51,1.74,1.51h1.28c1.96,0,2.83-0.63,3.34-1.74c0.1-0.22,0.38-0.17,0.3,0.09L28.2,12.3
		c-0.3,1.01-0.42,1.07-1.37,1.07H23.1z"/>
	<path d="M30.31,5.3c-0.22-0.01-0.41-0.03-0.41-0.15c0-0.1,0.15-0.15,0.36-0.15c0.96,0,1.72,0.03,2.75,0.03
		c0.93,0,1.81-0.03,3.24-0.03c1.62,0,4.84,0.03,4.84,2.38c0,1.45-1.15,2.05-2.47,2.31c0.33,0.13,0.57,0.41,0.9,0.83
		c1.3,1.74,2.22,2.56,3.52,2.56c0.42,0,0.39,0.25,0.04,0.3c-0.29,0.03-0.67,0.06-1.59,0.06c-2.08,0-2.75-0.02-5.1-3.2
		c-0.32-0.36-0.71-0.39-0.97-0.39h-1.11c-0.18,0-0.21,0.04-0.21,0.22v1.38c0,1.47,0.78,1.58,1.5,1.61c0.22,0.01,0.41,0.03,0.41,0.15
		c0,0.11-0.15,0.15-0.36,0.15c-0.93,0-1.8-0.03-2.67-0.03s-1.83,0.03-2.76,0.03c-0.21,0-0.36-0.04-0.36-0.15
		c0-0.12,0.18-0.13,0.41-0.15c0.71-0.04,1.5-0.11,1.5-1.61V6.89C31.77,5.42,31.03,5.33,30.31,5.3z M36.37,9.2
		c1.2,0,2.17-0.57,2.17-1.81c0-1.42-0.97-1.72-2.17-1.72h-0.99c-1.21,0-1.27,0.01-1.27,1.23V9c0,0.14,0.04,0.2,0.21,0.2H36.37z"/>
	<path d="M47.67,10.94c0,1.42,0.04,1.68,2.14,1.68h1.26c1.35,0,2.35-0.57,2.95-2.24c0.09-0.27,0.36-0.24,0.3,0.03l-0.48,1.95
		c-0.18,0.64-0.32,1-1.09,1H49.2c-0.58,0-1.94-0.03-2.57-0.03c-0.85,0-1.96,0.03-2.82,0.03c-0.18,0-0.3-0.08-0.3-0.13
		c0-0.08,0.12-0.17,0.32-0.17c1.04,0,1.5-0.55,1.5-1.56V6.89c0-0.51-0.06-0.79-0.18-0.99c-0.24-0.42-0.92-0.6-1.32-0.6
		c-0.22,0-0.39-0.04-0.39-0.15c0-0.1,0.13-0.15,0.36-0.15c0.87,0,1.88,0.04,2.73,0.04C47.4,5.04,48.27,5,49.18,5
		c0.23,0,0.35,0.04,0.35,0.15c0,0.11-0.15,0.15-0.38,0.15c-0.41,0-1.1,0.18-1.33,0.6c-0.09,0.2-0.15,0.48-0.15,0.99V10.94z"/>
	<path d="M62.22,4.85c4.05,0,6.84,1.51,6.84,4.25c0,2.29-1.95,4.42-6.72,4.42c-3.86,0-6.84-1.4-6.84-4.25
		C55.5,6.95,57.46,4.85,62.22,4.85z M58.27,9.03c0,2.16,1.41,3.83,4.07,3.83c2.04,0,3.94-0.98,3.94-3.53c0-2.16-1.38-3.82-4.03-3.82
		C60.21,5.51,58.27,6.48,58.27,9.03z"/>
	<path d="M82.24,12.2c-0.13,0.46-0.18,0.57-0.69,0.81c-0.86,0.41-2.91,0.51-3.83,0.51c-3.06,0-7.11-1.04-7.11-4.33
		s4.06-4.33,7.11-4.33c1.35,0,2.38,0.21,3.84,0.51c0.27,0.08,0.33-0.1,0.5-0.1c0.09,0,0.15,0.09,0.15,0.3v2.22
		c0,0.24-0.21,0.24-0.27,0.04c-0.51-1.84-2.62-2.31-4.21-2.31c-2.19,0-4.26,1.08-4.26,3.67c0,2.47,1.74,3.67,4.26,3.67
		c2.24,0,4.05-1.12,4.71-2.45c0.1-0.21,0.29-0.15,0.27,0.04L82.24,12.2z"/>
	<path d="M92.04,7.85c3.49,4.59,4.05,5.28,5.19,5.28c0.17,0,0.33-0.01,0.53-0.03c0.39-0.03,0.43,0.24,0.06,0.3
		c-0.34,0.04-0.99,0.12-1.46,0.12c-2.79,0-3.03-0.14-6.18-4.23l-2.04,1.58v0.62c0,0.52,0.06,0.79,0.15,0.99
		c0.24,0.42,0.93,0.6,1.33,0.6c0.22,0,0.38,0.04,0.38,0.17c0,0.09-0.12,0.13-0.34,0.13c-0.87,0-1.71-0.03-2.57-0.03
		c-0.85,0-1.89,0.03-2.8,0.03c-0.23,0-0.36-0.04-0.36-0.13c0-0.12,0.17-0.17,0.39-0.17c0.4,0,1.08-0.18,1.32-0.6
		c0.12-0.19,0.18-0.46,0.18-0.99V6.89c0-0.51-0.06-0.79-0.18-0.99c-0.24-0.42-0.92-0.6-1.32-0.6c-0.23,0-0.39-0.04-0.39-0.15
		c0-0.1,0.13-0.15,0.36-0.15c0.87,0,1.83,0.04,2.68,0.04c0.87,0,1.77-0.04,2.69-0.04C89.88,5,90,5.04,90,5.15
		c0,0.11-0.15,0.15-0.38,0.15c-0.41,0-1.09,0.18-1.33,0.6c-0.09,0.2-0.15,0.48-0.15,0.99v3.06l4.56-3.54
		c0.29-0.22,0.66-0.58,0.66-0.82c0-0.17-0.18-0.29-0.66-0.29c-0.19,0-0.31-0.09-0.31-0.15c0-0.09,0.09-0.15,0.3-0.15
		c0.72,0,1.35,0.04,2.08,0.04c0.72,0,1.17-0.04,1.89-0.04c0.23,0,0.3,0.06,0.3,0.15c0,0.06-0.05,0.15-0.3,0.15
		c-1.11,0.06-2.35,0.78-3.42,1.62L92.04,7.85z"/>
	<path d="M103.26,13.37c-0.63,0-1.37-0.03-2.33-0.03c-1.14,0-1.81,0.03-2.42,0.03c-0.21,0-0.31-0.06-0.31-0.13
		c0-0.09,0.1-0.15,0.31-0.15c0.33,0,0.95-0.12,1.14-0.46c0.08-0.15,0.12-0.34,0.12-0.69V6.45c0-0.36-0.04-0.56-0.12-0.71
		c-0.2-0.35-0.81-0.46-1.14-0.46c-0.21,0-0.31-0.06-0.31-0.15c0-0.08,0.1-0.13,0.31-0.13c0.6,0,1.28,0.03,2.43,0.03
		c0.55,0,1.38-0.03,2.04-0.03h4.17c0.89,0,0.89-0.15,1.07-0.15c0.17,0,0.2,0.06,0.15,0.36l-0.24,1.86c-0.03,0.27-0.25,0.29-0.29,0
		c-0.22-1.27-0.79-1.27-2.13-1.27h-2.58c-0.78,0-1.02,0.18-1.02,0.9v1.7c0,0.17,0.04,0.21,0.22,0.21h2.49c0.85,0,1.29-0.53,1.3-1
		c0-0.2,0.08-0.29,0.15-0.29c0.07,0,0.13,0.09,0.13,0.29c0,0.36-0.03,0.97-0.03,1.39s0.03,1.02,0.03,1.39
		c0,0.21-0.06,0.29-0.13,0.29c-0.08,0-0.15-0.06-0.15-0.29c0-0.48-0.45-0.99-1.3-0.99h-2.49c-0.2,0-0.22,0.06-0.22,0.21v1.46
		c0,1.23,0.33,1.51,1.74,1.51h1.28c1.96,0,2.83-0.63,3.34-1.74c0.11-0.22,0.38-0.17,0.3,0.09l-0.42,1.38
		c-0.3,1.01-0.42,1.07-1.37,1.07H103.26z"/>
	<path d="M110.47,5.3c-0.22-0.01-0.4-0.03-0.4-0.15c0-0.1,0.15-0.15,0.36-0.15c0.96,0,1.73,0.03,2.75,0.03
		c0.93,0,1.81-0.03,3.24-0.03c1.62,0,4.84,0.03,4.84,2.38c0,1.45-1.16,2.05-2.48,2.31c0.33,0.13,0.57,0.41,0.9,0.83
		c1.3,1.74,2.22,2.56,3.52,2.56c0.42,0,0.39,0.25,0.04,0.3c-0.28,0.03-0.67,0.06-1.59,0.06c-2.08,0-2.74-0.02-5.1-3.2
		c-0.31-0.36-0.71-0.39-0.97-0.39h-1.11c-0.18,0-0.21,0.04-0.21,0.22v1.38c0,1.47,0.78,1.58,1.5,1.61c0.23,0.01,0.41,0.03,0.41,0.15
		c0,0.11-0.15,0.15-0.36,0.15c-0.93,0-1.8-0.03-2.67-0.03s-1.83,0.03-2.76,0.03c-0.21,0-0.36-0.04-0.36-0.15
		c0-0.12,0.18-0.13,0.41-0.15c0.71-0.04,1.5-0.11,1.5-1.61V6.89C111.93,5.42,111.19,5.33,110.47,5.3z M116.53,9.2
		c1.2,0,2.18-0.57,2.18-1.81c0-1.42-0.98-1.72-2.18-1.72h-0.99c-1.21,0-1.28,0.01-1.28,1.23V9c0,0.14,0.04,0.2,0.21,0.2H116.53z"/>
</g>
</svg>
